# xmcd
#
# Track frame offsets: 
#        150
#        30829
#        46681
#        66168
#        80349
#        100635
#        136474
#
# Disc length: 2181 seconds
#
# Revision: 1
# Processed by: cddbd v1.5.2PL0 Copyright (c) Steve Scherf et al.
# Submitted via: ExactAudioCopyFreeDBPlugin 1.0
#
DISCID=49088307
DTITLE=Miller Anderson - Bright City
DYEAR=1971
DGENRE=Blues
TTITLE0=Alice Mercy (To Whom It May Concern)
TTITLE1=The Age Of Progress
TTITLE2=Nothing In this World
TTITLE3=Bright City
TTITLE4=Grey Broken Morning
TTITLE5=High Tide, High Water
TTITLE6=Shadows 'Cross My Wall
EXTD=
EXTT0=
EXTT1=
EXTT2=
EXTT3=
EXTT4=
EXTT5=
EXTT6=
PLAYORDER=
